<svg xmlns="http://www.w3.org/2000/svg" width="1800" height="900" viewBox="0 0 1800 900" role="img" aria-labelledby="title">
  <title id="title">Solar powered EV charging landscape</title>
  <defs>
    <linearGradient id="bg" x1="0" x2="1" y1="0" y2="1">
      <stop stop-color="#071014"/>
      <stop offset=".55" stop-color="#0f1f22"/>
      <stop offset="1" stop-color="#05200f"/>
    </linearGradient>
    <radialGradient id="sun" cx=".78" cy=".24" r=".28">
      <stop stop-color="#39d353" stop-opacity=".45"/>
      <stop offset="1" stop-color="#39d353" stop-opacity="0"/>
    </radialGradient>
  </defs>
  <rect width="1800" height="900" fill="url(#bg)"/>
  <rect width="1800" height="900" fill="url(#sun)"/>
  <path d="M0 650c240-80 460-90 720-30 318 74 646-26 1080 38v242H0Z" fill="#06120d"/>
  <g transform="translate(840 430)" fill="#14242d" stroke="#39d353" stroke-opacity=".35" stroke-width="4">
    <path d="M0 80h300l-46 150H-46Z"/>
    <path d="M350 60h300l-46 150H304Z"/>
    <path d="M700 92h300l-46 150H654Z"/>
  </g>
  <g transform="translate(310 315)">
    <rect x="0" y="0" width="132" height="276" rx="24" fill="#eef7f0"/>
    <rect x="24" y="28" width="84" height="66" rx="12" fill="#06120d"/>
    <path d="m68 120-32 56h30l-12 48 48-72H72Z" fill="#39d353"/>
  </g>
  <g stroke="#39d353" stroke-width="6" stroke-linecap="round" opacity=".65">
    <path d="M1320 542c42-130 124-208 246-234"/>
    <path d="M1380 550c12-91 64-151 154-179"/>
    <path d="M1450 564c-4-65 22-110 78-136"/>
  </g>
</svg>
